<svg width="105" height="70" viewBox="0 0 105 70" fill="none" xmlns="http://www.w3.org/2000/svg">
<path d="M14.4062 43.5625V59H3.4375V13.5H21.5938C25.0729 13.5 28.1458 14.1458 30.8125 15.4375C33.5 16.7083 35.5729 18.5312 37.0312 20.9062C38.5104 23.2604 39.25 25.9375 39.25 28.9375C39.25 33.375 37.6562 36.9271 34.4688 39.5938C31.3021 42.2396 26.9479 43.5625 21.4062 43.5625H14.4062ZM14.4062 35.0938H21.5938C23.7188 35.0938 25.3333 34.5625 26.4375 33.5C27.5625 32.4375 28.125 30.9375 28.125 29C28.125 26.875 27.5521 25.1771 26.4062 23.9062C25.2604 22.6354 23.6979 21.9896 21.7188 21.9688H14.4062V35.0938Z" transform="translate(70.831 56.024) scale(0.185676) rotate(-7.96872)" fill="#4C4C4C"/>
<path d="M41.4688 59H30.5625V40H14.4062V59H3.4375V13.5H14.4062V31.5625H30.5625V13.5H41.4688V59Z" transform="translate(77.135 55.4381) scale(0.185676) rotate(-24.6009)" fill="#4C4C4C"/>
<path d="M29.2812 50.5H14.25L11.625 59H-0.09375L16.5938 13.5H26.9062L43.7188 59H31.9375L29.2812 50.5ZM16.875 42.0312H26.6562L21.75 26.25L16.875 42.0312Z" transform="translate(82.7127 53.3255) scale(0.185676) rotate(-39.2499)" fill="#4C4C4C"/>
<path d="M17.8438 13.5L28 45.1562L38.125 13.5H52.5625V59H41.5625V48.375L42.625 26.625L31.625 59H24.375L13.3438 26.5938L14.4062 48.375V59H3.4375V13.5H17.8438Z" transform="translate(87.0468 50.4608) scale(0.185676) rotate(-56.2426)" fill="#4C4C4C"/>
<path fill-rule="evenodd" clip-rule="evenodd" d="M345.369 172.606C345.369 267.977 268.055 345.291 172.684 345.291C77.3135 345.291 -4.2167e-06 267.977 0 172.606C9.83381e-07 150.365 4.2049 129.105 11.8631 109.579L53.4694 125.927C47.7838 140.474 44.6629 156.306 44.6629 172.866C44.663 244.107 102.415 301.858 173.655 301.858C244.895 301.858 302.647 244.107 302.647 172.866C302.647 103.66 248.146 47.1827 179.723 44.0143L177.932 0C270.875 2.77393 345.369 78.9906 345.369 172.606Z" transform="translate(104.604 66.6541) scale(0.185676) rotate(180)" fill="#4C4C4C"/>
<path d="M17.8438 13.5L28 45.1562L38.125 13.5H52.5625V59H41.5625V48.375L42.625 26.625L31.625 59H24.375L13.3438 26.5938L14.4062 48.375V59H3.4375V13.5H17.8438Z" transform="translate(0.124088 24.0997) scale(0.185676) rotate(-64.4427)" fill="#4C4C4C"/>
<path d="M41.9688 37.1875C41.9688 41.625 41.1458 45.5521 39.5 48.9688C37.8542 52.3854 35.5104 55.0208 32.4688 56.875C29.4479 58.7083 26 59.625 22.125 59.625C18.25 59.625 14.8125 58.7396 11.8125 56.9688C8.8125 55.1771 6.46875 52.625 4.78125 49.3125C3.11458 46 2.23958 42.1979 2.15625 37.9062V35.3438C2.15625 30.8854 2.96875 26.9583 4.59375 23.5625C6.23958 20.1458 8.58333 17.5104 11.625 15.6562C14.6875 13.8021 18.1667 12.875 22.0625 12.875C25.9167 12.875 29.3542 13.7917 32.375 15.625C35.3958 17.4583 37.7396 20.0729 39.4062 23.4688C41.0938 26.8438 41.9479 30.7188 41.9688 35.0938V37.1875ZM30.8125 35.2812C30.8125 30.7604 30.0521 27.3333 28.5312 25C27.0312 22.6458 24.875 21.4688 22.0625 21.4688C16.5625 21.4688 13.6562 25.5938 13.3438 33.8438L13.3125 37.1875C13.3125 41.6458 14.0521 45.0729 15.5312 47.4688C17.0104 49.8646 19.2083 51.0625 22.125 51.0625C24.8958 51.0625 27.0312 49.8854 28.5312 47.5312C30.0312 45.1771 30.7917 41.7917 30.8125 37.375V35.2812Z" transform="translate(5.88848 13.4611) scale(0.185676) rotate(-47.4297)" fill="#4C4C4C"/>
<path d="M41.9688 37.1875C41.9688 41.625 41.1458 45.5521 39.5 48.9688C37.8542 52.3854 35.5104 55.0208 32.4688 56.875C29.4479 58.7083 26 59.625 22.125 59.625C18.25 59.625 14.8125 58.7396 11.8125 56.9688C8.8125 55.1771 6.46875 52.625 4.78125 49.3125C3.11458 46 2.23958 42.1979 2.15625 37.9062V35.3438C2.15625 30.8854 2.96875 26.9583 4.59375 23.5625C6.23958 20.1458 8.58333 17.5104 11.625 15.6562C14.6875 13.8021 18.1667 12.875 22.0625 12.875C25.9167 12.875 29.3542 13.7917 32.375 15.625C35.3958 17.4583 37.7396 20.0729 39.4062 23.4688C41.0938 26.8438 41.9479 30.7188 41.9688 35.0938V37.1875ZM30.8125 35.2812C30.8125 30.7604 30.0521 27.3333 28.5312 25C27.0312 22.6458 24.875 21.4688 22.0625 21.4688C16.5625 21.4688 13.6562 25.5938 13.3438 33.8438L13.3125 37.1875C13.3125 41.6458 14.0521 45.0729 15.5312 47.4688C17.0104 49.8646 19.2083 51.0625 22.125 51.0625C24.8958 51.0625 27.0312 49.8854 28.5312 47.5312C30.0312 45.1771 30.7917 41.7917 30.8125 37.375V35.2812Z" transform="translate(12.6966 6.40701) scale(0.185676) rotate(-28.5122)" fill="#4C4C4C"/>
<path d="M20.3438 42.9375H14.4062V59H3.4375V13.5H21.3438C26.7396 13.5 30.9583 14.6979 34 17.0938C37.0417 19.4896 38.5625 22.875 38.5625 27.25C38.5625 30.4167 37.9167 33.0417 36.625 35.125C35.3542 37.2083 33.3542 38.8958 30.625 40.1875L40.125 58.5312V59H28.375L20.3438 42.9375ZM14.4062 34.4688H21.3438C23.4271 34.4688 24.9896 33.9271 26.0312 32.8438C27.0938 31.7396 27.625 30.2083 27.625 28.25C27.625 26.2917 27.0938 24.7604 26.0312 23.6562C24.9688 22.5312 23.4062 21.9688 21.3438 21.9688H14.4062V34.4688Z" transform="translate(21.6625 1.52349) scale(0.185676) rotate(-10.8324)" fill="#4C4C4C"/>
<path d="M31.6562 39.7188H14.4062V50.5625H34.7812V59H3.4375V13.5H34.8438V21.9688H14.4062V31.5625H31.6562V39.7188Z" transform="translate(30.8122) scale(0.185676) rotate(1.48671)" fill="#4C4C4C"/>
<path fill-rule="evenodd" clip-rule="evenodd" d="M48.7335 138.543L5.49298 127.182C1.90756 141.042 0 155.577 0 170.557C0 265.928 77.3135 343.242 172.684 343.242C268.055 343.242 345.369 265.928 345.369 170.557C345.369 84.4352 282.324 13.0381 199.868 0L196.495 43.8409C256.841 54.6234 302.647 107.371 302.647 170.817C302.647 242.058 244.895 299.809 173.655 299.809C102.415 299.809 44.663 242.058 44.663 170.817C44.663 159.673 46.0763 148.858 48.7335 138.543Z" transform="translate(1.25506 2.91729) scale(0.185676)" fill="#4C4C4C"/>
</svg>
